<svg xmlns="http://www.w3.org/2000/svg" xmlns:xlink="http://www.w3.org/1999/xlink" width="170" zoomAndPan="magnify" viewBox="0 0 127.5 33.749998" height="45" preserveAspectRatio="xMidYMid meet" version="1.0"><defs><g/><clipPath id="52b9f9d693"><path d="M 77 11 L 88 11 L 88 33.5 L 77 33.5 Z M 77 11 " clip-rule="nonzero"/></clipPath></defs><g fill="#000000" fill-opacity="1"><g transform="translate(13.192312, 23.260021)"><g><path d="M 1.859375 0.25 C 1.535156 0.25 1.300781 0.09375 1.15625 -0.21875 C 1.007812 -0.53125 0.9375 -0.925781 0.9375 -1.40625 C 0.9375 -1.726562 0.972656 -2.109375 1.046875 -2.546875 L 2.546875 -12.59375 C 2.898438 -14.90625 3.332031 -16.6875 3.84375 -17.9375 C 4.351562 -19.195312 4.96875 -20.109375 5.6875 -20.671875 C 6.09375 -20.992188 6.515625 -21.226562 6.953125 -21.375 C 7.398438 -21.53125 8.082031 -21.71875 9 -21.9375 C 9.425781 -22.019531 9.695312 -22.085938 9.8125 -22.140625 C 9.925781 -22.191406 10.003906 -22.21875 10.046875 -22.21875 C 10.160156 -22.21875 10.21875 -22.148438 10.21875 -22.015625 C 10.21875 -21.953125 10.175781 -21.851562 10.09375 -21.71875 C 10.019531 -21.582031 9.898438 -21.4375 9.734375 -21.28125 C 9.546875 -21.113281 9.363281 -21 9.1875 -20.9375 C 9.019531 -20.875 8.820312 -20.835938 8.59375 -20.828125 C 7.601562 -20.722656 6.890625 -20.414062 6.453125 -19.90625 C 5.617188 -18.945312 5.003906 -17.1875 4.609375 -14.625 L 2.75 -2.625 C 2.738281 -2.507812 2.734375 -2.363281 2.734375 -2.1875 C 2.734375 -1.8125 2.84375 -1.625 3.0625 -1.625 C 3.570312 -1.625 4.164062 -2.382812 4.84375 -3.90625 C 4.90625 -4.082031 5 -4.171875 5.125 -4.171875 C 5.238281 -4.171875 5.296875 -4.054688 5.296875 -3.828125 C 5.296875 -3.265625 5.097656 -2.660156 4.703125 -2.015625 C 4.304688 -1.367188 3.832031 -0.828125 3.28125 -0.390625 C 2.738281 0.0351562 2.265625 0.25 1.859375 0.25 Z M 1.859375 0.25 "/></g></g></g><g fill="#000000" fill-opacity="1"><g transform="translate(19.538802, 23.260021)"><g><path d="M 3.15625 0.25 C 2.445312 0.25 2.09375 -0.28125 2.09375 -1.34375 C 2.09375 -1.875 2.175781 -2.625 2.34375 -3.59375 L 3.21875 -8.84375 C 3.28125 -9.457031 3.3125 -9.804688 3.3125 -9.890625 C 3.3125 -10.140625 3.242188 -10.265625 3.109375 -10.265625 C 2.710938 -10.265625 2.253906 -9.753906 1.734375 -8.734375 C 1.703125 -8.671875 1.644531 -8.554688 1.5625 -8.390625 C 1.488281 -8.234375 1.425781 -8.132812 1.375 -8.09375 C 1.320312 -8.050781 1.269531 -8.03125 1.21875 -8.03125 C 1.1875 -8.03125 1.15625 -8.054688 1.125 -8.109375 C 1.09375 -8.171875 1.078125 -8.242188 1.078125 -8.328125 C 1.078125 -8.671875 1.25 -9.148438 1.59375 -9.765625 C 1.9375 -10.390625 2.363281 -10.9375 2.875 -11.40625 C 3.382812 -11.882812 3.867188 -12.125 4.328125 -12.125 C 4.597656 -12.125 4.8125 -12.007812 4.96875 -11.78125 C 5.132812 -11.550781 5.21875 -11.242188 5.21875 -10.859375 C 5.21875 -10.597656 5.203125 -10.398438 5.171875 -10.265625 L 3.96875 -2.75 C 3.9375 -2.507812 3.921875 -2.359375 3.921875 -2.296875 C 3.921875 -1.941406 4.054688 -1.765625 4.328125 -1.765625 C 4.890625 -1.765625 5.5 -2.140625 6.15625 -2.890625 C 6.8125 -3.648438 7.390625 -4.554688 7.890625 -5.609375 C 8.390625 -6.660156 8.71875 -7.585938 8.875 -8.390625 L 9.21875 -10.25 C 9.351562 -10.851562 9.628906 -11.316406 10.046875 -11.640625 C 10.460938 -11.960938 10.851562 -12.125 11.21875 -12.125 C 11.351562 -12.125 11.421875 -12.082031 11.421875 -12 C 11.421875 -11.945312 11.382812 -11.847656 11.3125 -11.703125 C 11.25 -11.566406 11.195312 -11.394531 11.15625 -11.1875 C 10.925781 -10.132812 10.460938 -7.6875 9.765625 -3.84375 L 9.609375 -3.03125 C 9.484375 -2.4375 9.421875 -2.070312 9.421875 -1.9375 C 9.421875 -1.695312 9.5 -1.578125 9.65625 -1.578125 C 9.925781 -1.578125 10.226562 -1.789062 10.5625 -2.21875 C 10.894531 -2.65625 11.160156 -3.128906 11.359375 -3.640625 C 11.460938 -3.828125 11.550781 -3.921875 11.625 -3.921875 C 11.726562 -3.921875 11.78125 -3.84375 11.78125 -3.6875 C 11.78125 -3.507812 11.757812 -3.351562 11.71875 -3.21875 C 11.601562 -2.601562 11.363281 -2.03125 11 -1.5 C 10.644531 -0.976562 10.25 -0.554688 9.8125 -0.234375 C 9.375 0.0859375 8.96875 0.25 8.59375 0.25 C 7.925781 0.25 7.609375 -0.273438 7.640625 -1.328125 C 7.679688 -1.785156 7.785156 -2.40625 7.953125 -3.1875 L 8.1875 -4.4375 L 8.15625 -4.4375 C 7.269531 -3.019531 6.367188 -1.882812 5.453125 -1.03125 C 4.535156 -0.175781 3.769531 0.25 3.15625 0.25 Z M 3.15625 0.25 "/></g></g></g><g fill="#000000" fill-opacity="1"><g transform="translate(32.410195, 23.260021)"><g><path d="M 1.6875 0.25 C 1.53125 0.25 1.453125 0.203125 1.453125 0.109375 C 1.453125 0.0546875 1.488281 -0.0664062 1.5625 -0.265625 C 1.644531 -0.460938 1.753906 -0.882812 1.890625 -1.53125 C 2.078125 -2.332031 2.25 -3.191406 2.40625 -4.109375 C 2.570312 -5.023438 2.804688 -6.519531 3.109375 -8.59375 C 3.210938 -9.238281 3.265625 -9.6875 3.265625 -9.9375 C 3.265625 -10.15625 3.210938 -10.265625 3.109375 -10.265625 C 2.941406 -10.265625 2.753906 -10.128906 2.546875 -9.859375 C 2.347656 -9.585938 2.101562 -9.210938 1.8125 -8.734375 C 1.726562 -8.585938 1.648438 -8.457031 1.578125 -8.34375 C 1.515625 -8.238281 1.457031 -8.160156 1.40625 -8.109375 C 1.363281 -8.054688 1.320312 -8.03125 1.28125 -8.03125 C 1.144531 -8.03125 1.078125 -8.125 1.078125 -8.3125 C 1.078125 -8.644531 1.257812 -9.117188 1.625 -9.734375 C 2 -10.359375 2.441406 -10.910156 2.953125 -11.390625 C 3.460938 -11.878906 3.921875 -12.125 4.328125 -12.125 C 4.597656 -12.125 4.789062 -12 4.90625 -11.75 C 5.03125 -11.507812 5.09375 -11.203125 5.09375 -10.828125 C 5.09375 -10.472656 5.007812 -9.71875 4.84375 -8.5625 L 4.71875 -7.671875 L 4.734375 -7.671875 C 5.566406 -9.148438 6.378906 -10.257812 7.171875 -11 C 7.960938 -11.75 8.710938 -12.125 9.421875 -12.125 C 9.765625 -12.125 10.007812 -12.019531 10.15625 -11.8125 C 10.3125 -11.601562 10.390625 -11.25 10.390625 -10.75 C 10.390625 -10.28125 10.316406 -9.609375 10.171875 -8.734375 L 10.046875 -8.03125 L 10.09375 -8.03125 C 10.851562 -9.375 11.617188 -10.390625 12.390625 -11.078125 C 13.171875 -11.773438 13.863281 -12.125 14.46875 -12.125 C 15.1875 -12.125 15.546875 -11.613281 15.546875 -10.59375 C 15.546875 -10.238281 15.46875 -9.617188 15.3125 -8.734375 L 14.734375 -5.6875 C 14.304688 -3.53125 14.09375 -2.304688 14.09375 -2.015625 C 14.09375 -1.703125 14.21875 -1.546875 14.46875 -1.546875 C 14.757812 -1.546875 15.023438 -1.738281 15.265625 -2.125 C 15.503906 -2.507812 15.757812 -3.015625 16.03125 -3.640625 C 16.09375 -3.828125 16.175781 -3.921875 16.28125 -3.921875 C 16.382812 -3.921875 16.4375 -3.820312 16.4375 -3.625 C 16.4375 -3.46875 16.425781 -3.332031 16.40625 -3.21875 C 16.289062 -2.601562 16.050781 -2.023438 15.6875 -1.484375 C 15.320312 -0.953125 14.910156 -0.53125 14.453125 -0.21875 C 13.992188 0.09375 13.578125 0.25 13.203125 0.25 C 12.585938 0.25 12.28125 -0.207031 12.28125 -1.125 C 12.28125 -1.820312 12.492188 -3.179688 12.921875 -5.203125 C 12.972656 -5.453125 13.085938 -6.046875 13.265625 -6.984375 C 13.441406 -7.921875 13.546875 -8.703125 13.578125 -9.328125 C 13.578125 -9.617188 13.550781 -9.832031 13.5 -9.96875 C 13.457031 -10.101562 13.332031 -10.171875 13.125 -10.171875 C 12.726562 -10.171875 12.285156 -9.890625 11.796875 -9.328125 C 11.316406 -8.765625 10.863281 -8.054688 10.4375 -7.203125 C 10.019531 -6.359375 9.703125 -5.53125 9.484375 -4.71875 L 8.6875 -0.65625 C 8.675781 -0.457031 8.484375 -0.253906 8.109375 -0.046875 C 7.742188 0.148438 7.453125 0.25 7.234375 0.25 C 6.992188 0.25 6.875 0.148438 6.875 -0.046875 C 7.03125 -0.710938 7.3125 -2.160156 7.71875 -4.390625 C 8.125 -6.628906 8.363281 -8.273438 8.4375 -9.328125 L 8.4375 -9.578125 C 8.4375 -9.765625 8.410156 -9.910156 8.359375 -10.015625 C 8.304688 -10.117188 8.195312 -10.171875 8.03125 -10.171875 C 7.570312 -10.171875 7.054688 -9.816406 6.484375 -9.109375 C 5.910156 -8.398438 5.398438 -7.539062 4.953125 -6.53125 C 4.503906 -5.519531 4.210938 -4.609375 4.078125 -3.796875 L 3.671875 -1.578125 C 3.566406 -1.140625 3.289062 -0.722656 2.84375 -0.328125 C 2.40625 0.0546875 2.019531 0.25 1.6875 0.25 Z M 1.6875 0.25 "/></g></g></g><g fill="#000000" fill-opacity="1"><g transform="translate(49.920387, 23.260021)"><g><path d="M 4.234375 -13.578125 C 4.054688 -13.578125 3.976562 -13.664062 4 -13.84375 L 4.3125 -15.625 C 4.394531 -16.113281 4.578125 -16.488281 4.859375 -16.75 C 5.140625 -17.019531 5.488281 -17.15625 5.90625 -17.15625 L 6.015625 -17.15625 C 6.117188 -17.15625 6.179688 -17.132812 6.203125 -17.09375 C 6.234375 -17.0625 6.238281 -16.992188 6.21875 -16.890625 L 5.9375 -15.140625 C 5.863281 -14.660156 5.679688 -14.28125 5.390625 -14 C 5.109375 -13.71875 4.753906 -13.578125 4.328125 -13.578125 Z M 2.734375 0.25 C 2.179688 0.25 1.90625 -0.140625 1.90625 -0.921875 C 1.90625 -1.304688 1.957031 -1.753906 2.0625 -2.265625 L 3.28125 -9.078125 C 3.351562 -9.515625 3.390625 -9.785156 3.390625 -9.890625 C 3.390625 -10.140625 3.3125 -10.265625 3.15625 -10.265625 C 2.957031 -10.265625 2.710938 -10.101562 2.421875 -9.78125 C 2.128906 -9.457031 1.816406 -8.945312 1.484375 -8.25 C 1.410156 -8.050781 1.320312 -7.953125 1.21875 -7.953125 C 1.125 -7.953125 1.078125 -8.035156 1.078125 -8.203125 C 1.078125 -8.609375 1.257812 -9.128906 1.625 -9.765625 C 1.988281 -10.410156 2.4375 -10.960938 2.96875 -11.421875 C 3.5 -11.890625 3.992188 -12.125 4.453125 -12.125 C 4.984375 -12.125 5.25 -11.753906 5.25 -11.015625 C 5.25 -10.648438 5.195312 -10.179688 5.09375 -9.609375 L 3.765625 -2.25 L 3.71875 -1.90625 C 3.71875 -1.71875 3.796875 -1.625 3.953125 -1.625 C 4.148438 -1.625 4.394531 -1.789062 4.6875 -2.125 C 4.976562 -2.457031 5.289062 -2.960938 5.625 -3.640625 C 5.71875 -3.828125 5.804688 -3.921875 5.890625 -3.921875 C 5.992188 -3.921875 6.046875 -3.8125 6.046875 -3.59375 C 6.046875 -3.195312 5.859375 -2.6875 5.484375 -2.0625 C 5.117188 -1.445312 4.671875 -0.90625 4.140625 -0.4375 C 3.617188 0.0195312 3.148438 0.25 2.734375 0.25 Z M 2.734375 0.25 "/></g></g></g><g fill="#000000" fill-opacity="1"><g transform="translate(57.209925, 23.260021)"><g><path d="M 1.6875 0.25 C 1.53125 0.25 1.453125 0.203125 1.453125 0.109375 C 1.453125 0.0351562 1.488281 -0.113281 1.5625 -0.34375 C 1.644531 -0.570312 1.753906 -0.96875 1.890625 -1.53125 C 2.222656 -2.9375 2.628906 -5.289062 3.109375 -8.59375 C 3.210938 -9.238281 3.265625 -9.6875 3.265625 -9.9375 C 3.265625 -10.15625 3.210938 -10.265625 3.109375 -10.265625 C 2.816406 -10.265625 2.382812 -9.753906 1.8125 -8.734375 C 1.726562 -8.585938 1.648438 -8.457031 1.578125 -8.34375 C 1.515625 -8.238281 1.457031 -8.160156 1.40625 -8.109375 C 1.363281 -8.054688 1.320312 -8.03125 1.28125 -8.03125 C 1.144531 -8.03125 1.078125 -8.113281 1.078125 -8.28125 C 1.078125 -8.625 1.257812 -9.109375 1.625 -9.734375 C 2 -10.359375 2.441406 -10.910156 2.953125 -11.390625 C 3.460938 -11.878906 3.921875 -12.125 4.328125 -12.125 C 4.597656 -12.125 4.789062 -12.003906 4.90625 -11.765625 C 5.03125 -11.535156 5.09375 -11.238281 5.09375 -10.875 C 5.09375 -10.320312 4.957031 -9.226562 4.6875 -7.59375 L 4.71875 -7.59375 C 5.5 -8.96875 6.351562 -10.066406 7.28125 -10.890625 C 8.21875 -11.710938 9.023438 -12.125 9.703125 -12.125 C 10.421875 -12.125 10.78125 -11.625 10.78125 -10.625 C 10.78125 -10.25 10.703125 -9.617188 10.546875 -8.734375 L 9.96875 -5.6875 C 9.539062 -3.53125 9.328125 -2.304688 9.328125 -2.015625 C 9.328125 -1.890625 9.351562 -1.78125 9.40625 -1.6875 C 9.46875 -1.59375 9.566406 -1.546875 9.703125 -1.546875 C 10.160156 -1.546875 10.691406 -2.242188 11.296875 -3.640625 C 11.335938 -3.828125 11.421875 -3.921875 11.546875 -3.921875 C 11.648438 -3.921875 11.703125 -3.820312 11.703125 -3.625 C 11.703125 -3.46875 11.691406 -3.332031 11.671875 -3.21875 C 11.554688 -2.601562 11.3125 -2.023438 10.9375 -1.484375 C 10.5625 -0.953125 10.144531 -0.53125 9.6875 -0.21875 C 9.226562 0.09375 8.8125 0.25 8.4375 0.25 C 8.082031 0.25 7.835938 0.101562 7.703125 -0.1875 C 7.578125 -0.488281 7.515625 -0.816406 7.515625 -1.171875 C 7.515625 -1.929688 7.726562 -3.304688 8.15625 -5.296875 C 8.5625 -7.234375 8.78125 -8.578125 8.8125 -9.328125 C 8.832031 -9.628906 8.8125 -9.84375 8.75 -9.96875 C 8.695312 -10.101562 8.554688 -10.171875 8.328125 -10.171875 C 7.804688 -10.171875 7.242188 -9.820312 6.640625 -9.125 C 6.035156 -8.425781 5.492188 -7.570312 5.015625 -6.5625 C 4.546875 -5.550781 4.234375 -4.628906 4.078125 -3.796875 L 3.671875 -1.578125 C 3.566406 -1.140625 3.289062 -0.722656 2.84375 -0.328125 C 2.40625 0.0546875 2.019531 0.25 1.6875 0.25 Z M 1.6875 0.25 "/></g></g></g><g fill="#000000" fill-opacity="1"><g transform="translate(69.979364, 23.260021)"><g><path d="M 4.234375 -13.578125 C 4.054688 -13.578125 3.976562 -13.664062 4 -13.84375 L 4.3125 -15.625 C 4.394531 -16.113281 4.578125 -16.488281 4.859375 -16.75 C 5.140625 -17.019531 5.488281 -17.15625 5.90625 -17.15625 L 6.015625 -17.15625 C 6.117188 -17.15625 6.179688 -17.132812 6.203125 -17.09375 C 6.234375 -17.0625 6.238281 -16.992188 6.21875 -16.890625 L 5.9375 -15.140625 C 5.863281 -14.660156 5.679688 -14.28125 5.390625 -14 C 5.109375 -13.71875 4.753906 -13.578125 4.328125 -13.578125 Z M 2.734375 0.25 C 2.179688 0.25 1.90625 -0.140625 1.90625 -0.921875 C 1.90625 -1.304688 1.957031 -1.753906 2.0625 -2.265625 L 3.28125 -9.078125 C 3.351562 -9.515625 3.390625 -9.785156 3.390625 -9.890625 C 3.390625 -10.140625 3.3125 -10.265625 3.15625 -10.265625 C 2.957031 -10.265625 2.710938 -10.101562 2.421875 -9.78125 C 2.128906 -9.457031 1.816406 -8.945312 1.484375 -8.25 C 1.410156 -8.050781 1.320312 -7.953125 1.21875 -7.953125 C 1.125 -7.953125 1.078125 -8.035156 1.078125 -8.203125 C 1.078125 -8.609375 1.257812 -9.128906 1.625 -9.765625 C 1.988281 -10.410156 2.4375 -10.960938 2.96875 -11.421875 C 3.5 -11.890625 3.992188 -12.125 4.453125 -12.125 C 4.984375 -12.125 5.25 -11.753906 5.25 -11.015625 C 5.25 -10.648438 5.195312 -10.179688 5.09375 -9.609375 L 3.765625 -2.25 L 3.71875 -1.90625 C 3.71875 -1.71875 3.796875 -1.625 3.953125 -1.625 C 4.148438 -1.625 4.394531 -1.789062 4.6875 -2.125 C 4.976562 -2.457031 5.289062 -2.960938 5.625 -3.640625 C 5.71875 -3.828125 5.804688 -3.921875 5.890625 -3.921875 C 5.992188 -3.921875 6.046875 -3.8125 6.046875 -3.59375 C 6.046875 -3.195312 5.859375 -2.6875 5.484375 -2.0625 C 5.117188 -1.445312 4.671875 -0.90625 4.140625 -0.4375 C 3.617188 0.0195312 3.148438 0.25 2.734375 0.25 Z M 2.734375 0.25 "/></g></g></g><g clip-path="url(#52b9f9d693)"><g fill="#000000" fill-opacity="1"><g transform="translate(77.268902, 23.260021)"><g><path d="M 3.765625 9.859375 C 3.710938 9.859375 3.675781 9.835938 3.65625 9.796875 C 3.644531 9.753906 3.640625 9.703125 3.640625 9.640625 C 3.640625 9.378906 3.816406 9.019531 4.171875 8.5625 C 4.648438 8.050781 4.960938 7.617188 5.109375 7.265625 C 5.253906 6.921875 5.394531 6.328125 5.53125 5.484375 L 7.140625 -4.5625 L 7.109375 -4.59375 C 6.117188 -3.0625 5.179688 -1.867188 4.296875 -1.015625 C 3.421875 -0.171875 2.648438 0.25 1.984375 0.25 C 1.546875 0.25 1.21875 0.0351562 1 -0.390625 C 0.789062 -0.828125 0.6875 -1.492188 0.6875 -2.390625 C 0.6875 -3.859375 1.03125 -5.351562 1.71875 -6.875 C 2.40625 -8.394531 3.320312 -9.648438 4.46875 -10.640625 C 5.613281 -11.628906 6.851562 -12.125 8.1875 -12.125 C 8.914062 -12.125 9.550781 -11.988281 10.09375 -11.71875 C 10.070312 -11.632812 10.003906 -11.425781 9.890625 -11.09375 C 9.785156 -10.757812 9.722656 -10.492188 9.703125 -10.296875 L 7.15625 5.78125 C 7.101562 6.238281 6.96875 6.695312 6.75 7.15625 C 6.53125 7.613281 6.25 8.023438 5.90625 8.390625 L 5.90625 8.40625 L 6.875 8.4375 C 7.195312 8.4375 7.476562 8.367188 7.71875 8.234375 C 7.957031 8.109375 8.113281 8.046875 8.1875 8.046875 C 8.28125 8.046875 8.328125 8.113281 8.328125 8.25 C 8.328125 8.40625 8.269531 8.585938 8.15625 8.796875 C 7.988281 9.078125 7.75 9.304688 7.4375 9.484375 C 7.132812 9.671875 6.820312 9.765625 6.5 9.765625 C 6.3125 9.765625 6.082031 9.742188 5.8125 9.703125 C 5.507812 9.671875 5.242188 9.65625 5.015625 9.65625 C 4.742188 9.65625 4.488281 9.6875 4.25 9.75 C 4.019531 9.820312 3.859375 9.859375 3.765625 9.859375 Z M 3.15625 -1.828125 C 3.695312 -1.828125 4.300781 -2.226562 4.96875 -3.03125 C 5.632812 -3.84375 6.222656 -4.820312 6.734375 -5.96875 C 7.253906 -7.125 7.597656 -8.148438 7.765625 -9.046875 L 7.921875 -10.046875 C 7.535156 -10.460938 7.019531 -10.671875 6.375 -10.671875 C 5.695312 -10.671875 5.0625 -10.242188 4.46875 -9.390625 C 3.882812 -8.546875 3.414062 -7.515625 3.0625 -6.296875 C 2.71875 -5.085938 2.546875 -3.984375 2.546875 -2.984375 C 2.546875 -2.640625 2.597656 -2.359375 2.703125 -2.140625 C 2.804688 -1.929688 2.957031 -1.828125 3.15625 -1.828125 Z M 3.15625 -1.828125 "/></g></g></g></g><g fill="#000000" fill-opacity="1"><g transform="translate(88.177725, 23.260021)"><g><path d="M 3.15625 0.25 C 2.445312 0.25 2.09375 -0.28125 2.09375 -1.34375 C 2.09375 -1.875 2.175781 -2.625 2.34375 -3.59375 L 3.21875 -8.84375 C 3.28125 -9.457031 3.3125 -9.804688 3.3125 -9.890625 C 3.3125 -10.140625 3.242188 -10.265625 3.109375 -10.265625 C 2.710938 -10.265625 2.253906 -9.753906 1.734375 -8.734375 C 1.703125 -8.671875 1.644531 -8.554688 1.5625 -8.390625 C 1.488281 -8.234375 1.425781 -8.132812 1.375 -8.09375 C 1.320312 -8.050781 1.269531 -8.03125 1.21875 -8.03125 C 1.1875 -8.03125 1.15625 -8.054688 1.125 -8.109375 C 1.09375 -8.171875 1.078125 -8.242188 1.078125 -8.328125 C 1.078125 -8.671875 1.25 -9.148438 1.59375 -9.765625 C 1.9375 -10.390625 2.363281 -10.9375 2.875 -11.40625 C 3.382812 -11.882812 3.867188 -12.125 4.328125 -12.125 C 4.597656 -12.125 4.8125 -12.007812 4.96875 -11.78125 C 5.132812 -11.550781 5.21875 -11.242188 5.21875 -10.859375 C 5.21875 -10.597656 5.203125 -10.398438 5.171875 -10.265625 L 3.96875 -2.75 C 3.9375 -2.507812 3.921875 -2.359375 3.921875 -2.296875 C 3.921875 -1.941406 4.054688 -1.765625 4.328125 -1.765625 C 4.890625 -1.765625 5.5 -2.140625 6.15625 -2.890625 C 6.8125 -3.648438 7.390625 -4.554688 7.890625 -5.609375 C 8.390625 -6.660156 8.71875 -7.585938 8.875 -8.390625 L 9.21875 -10.25 C 9.351562 -10.851562 9.628906 -11.316406 10.046875 -11.640625 C 10.460938 -11.960938 10.851562 -12.125 11.21875 -12.125 C 11.351562 -12.125 11.421875 -12.082031 11.421875 -12 C 11.421875 -11.945312 11.382812 -11.847656 11.3125 -11.703125 C 11.25 -11.566406 11.195312 -11.394531 11.15625 -11.1875 C 10.925781 -10.132812 10.460938 -7.6875 9.765625 -3.84375 L 9.609375 -3.03125 C 9.484375 -2.4375 9.421875 -2.070312 9.421875 -1.9375 C 9.421875 -1.695312 9.5 -1.578125 9.65625 -1.578125 C 9.925781 -1.578125 10.226562 -1.789062 10.5625 -2.21875 C 10.894531 -2.65625 11.160156 -3.128906 11.359375 -3.640625 C 11.460938 -3.828125 11.550781 -3.921875 11.625 -3.921875 C 11.726562 -3.921875 11.78125 -3.84375 11.78125 -3.6875 C 11.78125 -3.507812 11.757812 -3.351562 11.71875 -3.21875 C 11.601562 -2.601562 11.363281 -2.03125 11 -1.5 C 10.644531 -0.976562 10.25 -0.554688 9.8125 -0.234375 C 9.375 0.0859375 8.96875 0.25 8.59375 0.25 C 7.925781 0.25 7.609375 -0.273438 7.640625 -1.328125 C 7.679688 -1.785156 7.785156 -2.40625 7.953125 -3.1875 L 8.1875 -4.4375 L 8.15625 -4.4375 C 7.269531 -3.019531 6.367188 -1.882812 5.453125 -1.03125 C 4.535156 -0.175781 3.769531 0.25 3.15625 0.25 Z M 3.15625 0.25 "/></g></g></g><g fill="#000000" fill-opacity="1"><g transform="translate(101.049118, 23.260021)"><g><path d="M 3.1875 0.25 C 2.414062 0.25 1.804688 -0.0390625 1.359375 -0.625 C 0.910156 -1.207031 0.6875 -2.019531 0.6875 -3.0625 C 0.6875 -4.3125 0.988281 -5.65625 1.59375 -7.09375 C 2.195312 -8.53125 2.972656 -9.726562 3.921875 -10.6875 C 4.878906 -11.644531 5.835938 -12.125 6.796875 -12.125 C 7.679688 -12.125 8.125 -11.59375 8.125 -10.53125 C 8.125 -9.65625 7.867188 -8.800781 7.359375 -7.96875 C 6.847656 -7.144531 6.164062 -6.410156 5.3125 -5.765625 C 4.457031 -5.128906 3.519531 -4.644531 2.5 -4.3125 C 2.5 -3.394531 2.644531 -2.726562 2.9375 -2.3125 C 3.238281 -1.90625 3.675781 -1.703125 4.25 -1.703125 C 4.863281 -1.703125 5.425781 -1.894531 5.9375 -2.28125 C 6.445312 -2.675781 6.878906 -3.21875 7.234375 -3.90625 C 7.285156 -4 7.335938 -4.078125 7.390625 -4.140625 C 7.441406 -4.210938 7.507812 -4.25 7.59375 -4.25 C 7.726562 -4.25 7.796875 -4.148438 7.796875 -3.953125 C 7.796875 -3.492188 7.566406 -2.921875 7.109375 -2.234375 C 6.648438 -1.554688 6.0625 -0.972656 5.34375 -0.484375 C 4.632812 0.00390625 3.914062 0.25 3.1875 0.25 Z M 3.3125 -5.65625 C 3.75 -5.65625 4.21875 -5.8125 4.71875 -6.125 C 5.226562 -6.4375 5.648438 -6.863281 5.984375 -7.40625 C 6.328125 -7.957031 6.5 -8.570312 6.5 -9.25 C 6.5 -10.050781 6.21875 -10.453125 5.65625 -10.453125 C 5.195312 -10.453125 4.757812 -10.203125 4.34375 -9.703125 C 3.925781 -9.210938 3.578125 -8.601562 3.296875 -7.875 C 3.015625 -7.144531 2.828125 -6.441406 2.734375 -5.765625 C 2.828125 -5.691406 3.019531 -5.65625 3.3125 -5.65625 Z M 3.3125 -5.65625 "/></g></g></g><g fill="#000000" fill-opacity="1"><g transform="translate(109.867936, 23.260021)"><g><path d="M 1.09375 0.25 C 0.851562 0.25 0.660156 0.160156 0.515625 -0.015625 C 0.378906 -0.191406 0.3125 -0.414062 0.3125 -0.6875 C 0.3125 -1.144531 0.503906 -1.585938 0.890625 -2.015625 C 1.285156 -2.441406 1.675781 -2.65625 2.0625 -2.65625 C 2.28125 -2.65625 2.46875 -2.5625 2.625 -2.375 C 2.78125 -2.195312 2.859375 -1.972656 2.859375 -1.703125 C 2.859375 -1.265625 2.660156 -0.828125 2.265625 -0.390625 C 1.878906 0.0351562 1.488281 0.25 1.09375 0.25 Z M 1.09375 0.25 "/></g></g></g></svg>